<svg xmlns="http://www.w3.org/2000/svg" xml:space="preserve" width="1500" height="107" data-id="lg_BDaIrhkh5LYaQJd7gD" data-version="1"><g data-padding="20"><g transform="translate(10 1.884)scale(.96479)"><path fill="#001f3f" d="M515.716 85.2h-9.51V37.22h9.51v10.23l-1.74 1.1q.73-2.38 2.33-4.57t3.93-3.88 5.03-2.7q2.69-1.01 5.53-1.01 4.11 0 7.22 1.38 3.1 1.37 5.11 4.11t2.93 6.85l-1.46-.36.64-1.56q1-2.1 2.78-3.97 1.79-1.88 4.07-3.34t4.84-2.28q2.56-.83 5.03-.83 5.39 0 8.91 2.2 3.52 2.19 5.3 6.67t1.78 11.15V85.2h-9.5V56.96q0-6.13-2.33-9-2.33-2.88-7.27-2.88-2.56 0-4.8.86-2.23.87-3.88 2.43-1.64 1.55-2.56 3.61-.91 2.05-.91 4.52v28.7h-9.51V56.77q0-5.66-2.42-8.68-2.42-3.01-6.99-3.01-2.56 0-4.75.86-2.19.87-3.84 2.38-1.64 1.51-2.56 3.57-.91 2.05-.91 4.43Zm89.84 21.03h-10.14l9.68-22.39.1 7.49-23.95-54.1h10.97l14.99 35.27q.45.92 1.09 2.79t1.1 3.7l-2.38.55q.74-1.92 1.42-3.84.69-1.92 1.33-3.84l12.52-34.63h11.15l-19.74 47.98Zm41.48-21.03h-9.5V37.22h9.5v10.23l-1.73 1.1q.73-2.38 2.33-4.57t3.93-3.88 5.02-2.7q2.7-1.01 5.53-1.01 4.11 0 7.22 1.38 3.11 1.37 5.12 4.11t2.92 6.85l-1.46-.36.64-1.56q1.01-2.1 2.79-3.97 1.78-1.88 4.06-3.34 2.29-1.46 4.85-2.28 2.56-.83 5.02-.83 5.4 0 8.91 2.2 3.52 2.19 5.3 6.67 1.79 4.48 1.79 11.15V85.2h-9.51V56.96q0-6.13-2.33-9-2.33-2.88-7.26-2.88-2.56 0-4.8.86-2.24.87-3.89 2.43-1.64 1.55-2.55 3.61-.92 2.05-.92 4.52v28.7h-9.5V56.77q0-5.66-2.42-8.68-2.43-3.01-7-3.01-2.55 0-4.75.86-2.19.87-3.84 2.38-1.64 1.51-2.55 3.57-.92 2.05-.92 4.43Zm94.5.91q-7.41 0-13.12-3.15-5.71-3.16-8.95-8.64-3.25-5.48-3.25-12.61 0-5.67 1.83-10.33t5.07-8.09q3.25-3.42 7.77-5.3 4.52-1.87 9.82-1.87 4.66 0 8.69 1.78 4.02 1.78 6.99 4.89t4.57 7.36 1.5 9.27l-.09 4.03h-39.2l-2.1-7.5h33.17l-1.37 1.56v-2.2q-.28-3.01-2.01-5.39-1.74-2.38-4.39-3.75t-5.76-1.37q-4.93 0-8.31 1.88-3.38 1.87-5.12 5.48t-1.74 8.91q0 5.03 2.11 8.73 2.1 3.7 5.94 5.71 3.83 2.01 8.86 2.01 3.56 0 6.63-1.19 3.06-1.19 6.62-4.29l4.75 6.67q-2.19 2.19-5.34 3.84-3.16 1.64-6.67 2.6-3.52.96-6.9.96m65.34-.9h-8.5V53.95q0-4.02-2.88-6.53-2.88-2.52-7.26-2.52-4.03 0-7.27 1.65-3.24 1.64-5.89 5.03l-6.13-6.13q4.3-4.66 9.28-6.94 4.98-2.29 10.74-2.29 5.48 0 9.5 1.83t6.22 5.35q2.19 3.51 2.19 8.54Zm-22.85.91q-4.66 0-8.31-1.83-3.66-1.83-5.81-5.07t-2.15-7.63q0-3.84 1.38-6.76 1.37-2.93 4.06-4.85 2.7-1.92 6.77-2.92 4.06-1.01 9.36-1.01h13.35l-.83 7.5h-13.71q-2.74 0-4.88.5-2.15.5-3.66 1.55t-2.24 2.47-.73 3.34q0 2.01 1 3.51 1.01 1.51 2.75 2.34 1.73.82 4.02.82 3.29 0 6.26-1.14 2.97-1.15 5.3-3.16t3.61-4.48l2.19 6.13q-1.92 3.2-4.75 5.57-2.83 2.38-6.12 3.75t-6.86 1.37m41.58-.92h-9.41V17.57h9.41Z"/><rect width="362.591" height="107.35" x="181.25" y="-402.715" fill="none" rx="0" ry="0" transform="translate(301.8 402.54)"/><path fill="#001f3f" d="M855.296 82.21h-8.49v-8.93h8.49Zm29.15.69q-6.56 0-11.38-3.02-4.81-3.02-7.48-8.18-2.67-5.17-2.67-11.38 0-6.31 2.67-11.43t7.48-8.14q4.82-3.02 11.38-3.02 7.79 0 13.27 4.03 5.47 4.02 7.39 10.41h-7.09q-1.49-3.76-4.77-6.12-3.28-2.37-7.92-2.37-4.82 0-8.41 2.28-3.58 2.27-5.51 6.04-1.93 3.76-1.93 8.32 0 4.46 1.93 8.27t5.51 6.08q3.59 2.28 8.41 2.28 4.64 0 7.92-2.37 3.28-2.36 4.77-6.12h7.09q-1.92 6.39-7.39 10.41-5.48 4.03-13.27 4.03m47.8 0q-6.65 0-11.56-3.02-4.9-3.02-7.52-8.18-2.63-5.17-2.63-11.38 0-6.31 2.63-11.43 2.62-5.12 7.52-8.14 4.91-3.02 11.56-3.02 6.74 0 11.6 3.02t7.48 8.14q2.63 5.12 2.63 11.43 0 6.21-2.63 11.38-2.62 5.16-7.48 8.18t-11.6 3.02m0-5.95q4.9 0 8.27-2.28 3.37-2.27 5.12-6.08t1.75-8.27q0-4.56-1.75-8.32-1.75-3.77-5.12-6.04-3.37-2.28-8.27-2.28-4.81 0-8.23 2.28-3.41 2.27-5.16 6.04-1.75 3.76-1.75 8.32 0 4.46 1.75 8.27t5.16 6.08q3.42 2.28 8.23 2.28m36.94 5.26h-6.56V38.44h6.56v6.65q1.49-2.62 4.73-4.99 3.24-2.36 8.58-2.36 4.37 0 8.1 2.32 3.72 2.32 5.82 6.52.87-1.49 2.75-3.59 1.89-2.1 4.95-3.67 3.06-1.58 7.35-1.58 4.21 0 7.88 2.19 3.68 2.19 6 6.26t2.32 9.58v26.44h-6.57V55.95q0-5.52-3.1-8.89-3.11-3.37-7.75-3.37-4.82 0-8.32 3.24t-3.5 9.11v26.17h-6.57V55.95q0-5.52-3.1-8.89-3.11-3.37-7.75-3.37-4.82 0-8.32 3.24t-3.5 9.11Z"/><rect width="208.299" height="102.83" x="258.396" y="-400.455" fill="none" rx="0" ry="0" transform="translate(584.27 401.3)"/></g><path fill="transparent" stroke="transparent" d="M466 0h568v107H466z"/></g></svg>